<svg width="31" height="32" viewBox="0 0 31 32" fill="none" xmlns="http://www.w3.org/2000/svg">
<path d="M15.5 9.5C20.3011 15.6509 23 19.3236 23 23.0343C23 26.7315 19.8431 29.5 15.5 29.5C11.1569 29.5 7.5 26.7303 7.5 23.0343C7.5 19.3225 10.6976 15.6509 15.5 9.5ZM15.5 4.84848C9.10813 12.9905 5 18.0837 5 23.0343C5 27.9872 9.69744 32 15.5 32C21.3026 32 26 27.9872 26 23.0343C26 18.0837 21.8919 12.9905 15.5 4.84848Z" fill="#21415E"/>
<path d="M6 24C6 24 8.61538 21 11.8846 21C15.1538 21 12.5385 24 16.4615 24C20.3846 24 24 21 24 21" stroke="#21415E" stroke-width="2"/>
</svg>
