<svg width="112" height="33" viewBox="0 0 112 33" fill="none" xmlns="http://www.w3.org/2000/svg">
<rect x="1" y="1" width="110" height="31" rx="15.5" stroke="white" stroke-width="2"/>
<path d="M25.8738 15.504V17.304H20.9538V22.368H19.1538V17.304H14.2098V15.504H19.1538V10.464H20.9538V15.504H25.8738ZM36.7298 24V12H38.4098L38.5298 13.872C38.9458 13.12 39.5138 12.584 40.2338 12.264C40.9538 11.928 41.7298 11.76 42.5618 11.76C43.4258 11.76 44.2098 11.928 44.9138 12.264C45.6178 12.584 46.1778 13.08 46.5938 13.752C47.0258 14.424 47.2418 15.28 47.2418 16.32V24H45.3218V16.992C45.3218 15.664 45.0338 14.744 44.4578 14.232C43.8978 13.704 43.2018 13.44 42.3698 13.44C41.7938 13.44 41.2178 13.576 40.6418 13.848C40.0658 14.12 39.5858 14.56 39.2018 15.168C38.8338 15.776 38.6498 16.592 38.6498 17.616V24H36.7298ZM56.0772 11.76C57.2132 11.76 58.2132 12.008 59.0772 12.504C59.9572 13 60.6452 13.72 61.1412 14.664C61.6372 15.592 61.8852 16.704 61.8852 18C61.8852 19.296 61.6372 20.416 61.1412 21.36C60.6452 22.288 59.9572 23 59.0772 23.496C58.2132 23.992 57.2132 24.24 56.0772 24.24C54.9572 24.24 53.9572 23.992 53.0772 23.496C52.1972 23 51.5092 22.288 51.0132 21.36C50.5172 20.416 50.2692 19.296 50.2692 18C50.2692 16.704 50.5172 15.592 51.0132 14.664C51.5092 13.72 52.1972 13 53.0772 12.504C53.9572 12.008 54.9572 11.76 56.0772 11.76ZM56.0772 13.416C54.8612 13.416 53.9092 13.824 53.2212 14.64C52.5332 15.456 52.1892 16.576 52.1892 18C52.1892 19.424 52.5332 20.544 53.2212 21.36C53.9092 22.176 54.8612 22.584 56.0772 22.584C57.2932 22.584 58.2452 22.176 58.9332 21.36C59.6212 20.544 59.9652 19.424 59.9652 18C59.9652 16.576 59.6212 15.456 58.9332 14.64C58.2452 13.824 57.2932 13.416 56.0772 13.416ZM69.6998 24.24C68.7078 24.24 67.7958 23.992 66.9638 23.496C66.1318 23 65.4678 22.288 64.9718 21.36C64.4758 20.416 64.2278 19.296 64.2278 18C64.2278 16.672 64.4918 15.544 65.0198 14.616C65.5478 13.688 66.2438 12.984 67.1078 12.504C67.9718 12.008 68.8998 11.76 69.8918 11.76C70.7558 11.76 71.5238 11.96 72.1958 12.36C72.8678 12.744 73.3638 13.272 73.6838 13.944V6.48H75.6038V24H73.9238L73.8038 21.744C73.4678 22.56 72.9238 23.184 72.1718 23.616C71.4198 24.032 70.5958 24.24 69.6998 24.24ZM69.8918 22.56C71.0278 22.56 71.9398 22.136 72.6278 21.288C73.3318 20.44 73.6838 19.288 73.6838 17.832C73.6838 16.456 73.3398 15.384 72.6518 14.616C71.9638 13.832 71.0758 13.44 69.9878 13.44C68.7718 13.44 67.8278 13.856 67.1558 14.688C66.4838 15.52 66.1478 16.624 66.1478 18C66.1478 19.376 66.4758 20.48 67.1318 21.312C67.7878 22.144 68.7078 22.56 69.8918 22.56ZM84.6027 24.24C83.4667 24.24 82.4507 23.992 81.5547 23.496C80.6747 23 79.9867 22.288 79.4907 21.36C78.9947 20.416 78.7467 19.296 78.7467 18C78.7467 16.704 78.9947 15.592 79.4907 14.664C79.9867 13.72 80.6667 13 81.5307 12.504C82.3947 12.008 83.3787 11.76 84.4827 11.76C85.6027 11.76 86.5547 12 87.3387 12.48C88.1387 12.96 88.7467 13.616 89.1627 14.448C89.5787 15.264 89.7867 16.184 89.7867 17.208C89.7867 17.48 89.7787 17.728 89.7627 17.952C89.7467 18.176 89.7227 18.376 89.6907 18.552H80.6427C80.7387 19.816 81.1307 20.8 81.8187 21.504C82.5067 22.208 83.4187 22.56 84.5547 22.56C85.4347 22.56 86.1467 22.392 86.6907 22.056C87.2507 21.72 87.6987 21.264 88.0347 20.688L89.5467 21.576C89.0987 22.392 88.4507 23.04 87.6027 23.52C86.7707 24 85.7707 24.24 84.6027 24.24ZM84.4347 13.44C83.4267 13.44 82.5947 13.744 81.9387 14.352C81.2987 14.944 80.8907 15.776 80.7147 16.848H87.8667C87.8187 15.76 87.4827 14.92 86.8587 14.328C86.2347 13.736 85.4267 13.44 84.4347 13.44Z" fill="white"/>
</svg>
