<svg width="37" height="40" viewBox="0 0 37 40" fill="none" xmlns="http://www.w3.org/2000/svg">
<path d="M18.5 11.875C24.2304 19.5637 27.4516 24.1545 27.4516 28.7929C27.4516 33.4143 23.6837 36.875 18.5 36.875C13.3163 36.875 8.95161 33.4129 8.95161 28.7929C8.95161 24.1531 12.7681 19.5637 18.5 11.875ZM18.5 6.06059C10.871 16.2382 5.96774 22.6046 5.96774 28.7929C5.96774 34.984 11.5744 40 18.5 40C25.4256 40 31.0323 34.984 31.0323 28.7929C31.0323 22.6046 26.129 16.2382 18.5 6.06059Z" fill="white"/>
<path d="M7.16129 30C7.16129 30 10.2829 26.25 14.1849 26.25C18.0868 26.25 14.9653 30 19.6476 30C24.33 30 28.6452 26.25 28.6452 26.25" stroke="white" stroke-width="2"/>
</svg>
