<svg width="202" height="41" viewBox="0 0 202 41" fill="none" xmlns="http://www.w3.org/2000/svg">
<path d="M44.838 15V19.114H40.01V32H34.23V19.114H31.51V15H34.23V13.436C34.23 11.9853 34.536 10.818 35.148 9.934C35.7827 9.02733 36.61 8.37 37.63 7.962C38.6727 7.53133 39.7947 7.316 40.996 7.316C41.9253 7.316 42.7413 7.418 43.444 7.622C44.1467 7.80333 44.668 8.01867 45.008 8.268L44.43 11.872C44.1807 11.736 43.8973 11.6227 43.58 11.532C43.2627 11.4187 42.866 11.362 42.39 11.362C41.574 11.362 40.9167 11.5433 40.418 11.906C39.9193 12.2687 39.67 12.9033 39.67 13.81V15H44.838ZM52.896 7.792V26.22C52.896 26.968 53.0207 27.5007 53.27 27.818C53.5193 28.1353 53.9387 28.294 54.528 28.294C54.868 28.294 55.1513 28.2713 55.378 28.226C55.6047 28.1807 55.8767 28.1127 56.194 28.022L55.82 31.49C55.412 31.7393 54.8793 31.9433 54.222 32.102C53.5647 32.2607 52.9187 32.34 52.284 32.34C50.4707 32.34 49.156 31.9207 48.34 31.082C47.524 30.2433 47.116 28.872 47.116 26.968V7.792H52.896ZM68.1004 14.66C69.891 14.66 71.455 15.0113 72.7924 15.714C74.1524 16.4167 75.2064 17.4253 75.9544 18.74C76.725 20.0547 77.1104 21.6413 77.1104 23.5C77.1104 25.3587 76.725 26.9453 75.9544 28.26C75.2064 29.5747 74.1524 30.5833 72.7924 31.286C71.455 31.9887 69.891 32.34 68.1004 32.34C66.3324 32.34 64.7684 31.9887 63.4084 31.286C62.071 30.5833 61.017 29.5747 60.2464 28.26C59.4984 26.9453 59.1244 25.3587 59.1244 23.5C59.1244 21.6413 59.4984 20.0547 60.2464 18.74C61.017 17.4253 62.071 16.4167 63.4084 15.714C64.7684 15.0113 66.3324 14.66 68.1004 14.66ZM68.1004 18.774C67.103 18.774 66.321 19.148 65.7544 19.896C65.2104 20.6213 64.9384 21.8227 64.9384 23.5C64.9384 25.1547 65.2104 26.356 65.7544 27.104C66.321 27.852 67.103 28.226 68.1004 28.226C69.1204 28.226 69.9024 27.852 70.4464 27.104C71.013 26.356 71.2964 25.1547 71.2964 23.5C71.2964 21.8227 71.013 20.6213 70.4464 19.896C69.9024 19.148 69.1204 18.774 68.1004 18.774ZM103.9 15H109.952L104.818 32H97.8823L94.7883 21.562L91.7963 32H84.8943L79.7263 15H85.8123L88.6683 27.546L92.0003 15H97.7123L101.01 27.546L103.9 15ZM124.858 32.34C123.475 32.34 122.296 31.966 121.322 31.218C120.347 30.47 119.644 29.484 119.214 28.26L119.01 32H113.944V7.792H119.724V17.924C120.177 16.9493 120.846 16.1673 121.73 15.578C122.636 14.966 123.747 14.66 125.062 14.66C126.376 14.66 127.544 15.0113 128.564 15.714C129.584 16.4167 130.388 17.4367 130.978 18.774C131.567 20.0887 131.862 21.6867 131.862 23.568C131.862 26.3333 131.216 28.4867 129.924 30.028C128.632 31.5693 126.943 32.34 124.858 32.34ZM122.852 28.09C123.849 28.09 124.631 27.7273 125.198 27.002C125.764 26.254 126.048 25.0867 126.048 23.5C126.048 21.9133 125.764 20.7573 125.198 20.032C124.631 19.284 123.849 18.91 122.852 18.91C121.877 18.91 121.106 19.318 120.54 20.134C119.996 20.95 119.724 22.0833 119.724 23.534C119.724 25.0073 120.007 26.1407 120.574 26.934C121.14 27.7047 121.9 28.09 122.852 28.09ZM145.052 14.66C146.843 14.66 148.407 15.0113 149.744 15.714C151.104 16.4167 152.158 17.4253 152.906 18.74C153.677 20.0547 154.062 21.6413 154.062 23.5C154.062 25.3587 153.677 26.9453 152.906 28.26C152.158 29.5747 151.104 30.5833 149.744 31.286C148.407 31.9887 146.843 32.34 145.052 32.34C143.284 32.34 141.72 31.9887 140.36 31.286C139.023 30.5833 137.969 29.5747 137.198 28.26C136.45 26.9453 136.076 25.3587 136.076 23.5C136.076 21.6413 136.45 20.0547 137.198 18.74C137.969 17.4253 139.023 16.4167 140.36 15.714C141.72 15.0113 143.284 14.66 145.052 14.66ZM145.052 18.774C144.055 18.774 143.273 19.148 142.706 19.896C142.162 20.6213 141.89 21.8227 141.89 23.5C141.89 25.1547 142.162 26.356 142.706 27.104C143.273 27.852 144.055 28.226 145.052 28.226C146.072 28.226 146.854 27.852 147.398 27.104C147.965 26.356 148.248 25.1547 148.248 23.5C148.248 21.8227 147.965 20.6213 147.398 19.896C146.854 19.148 146.072 18.774 145.052 18.774ZM168.333 21.222C168.333 20.4287 168.107 19.8053 167.653 19.352C167.223 18.876 166.633 18.638 165.885 18.638C165.137 18.638 164.491 18.8307 163.947 19.216C163.426 19.5787 163.063 20.236 162.859 21.188L157.963 20.032C158.281 18.4 159.119 17.0967 160.479 16.122C161.839 15.1473 163.755 14.66 166.225 14.66C168.719 14.66 170.645 15.2153 172.005 16.326C173.388 17.414 174.079 19.012 174.079 21.12V27.342C174.079 28.226 174.476 28.668 175.269 28.668C175.677 28.668 176.006 28.6227 176.255 28.532L175.915 31.83C175.235 32.1473 174.408 32.306 173.433 32.306C172.368 32.306 171.45 32.102 170.679 31.694C169.909 31.2633 169.387 30.6173 169.115 29.756C168.639 30.64 167.88 31.2973 166.837 31.728C165.817 32.136 164.729 32.34 163.573 32.34C161.828 32.34 160.434 31.9433 159.391 31.15C158.371 30.334 157.861 29.1667 157.861 27.648C157.861 26.424 158.224 25.4153 158.949 24.622C159.697 23.806 160.865 23.2393 162.451 22.922L168.333 21.698V21.222ZM163.573 27.104C163.573 27.6027 163.755 27.9767 164.117 28.226C164.48 28.4753 164.911 28.6 165.409 28.6C166.18 28.6 166.86 28.3733 167.449 27.92C168.039 27.444 168.333 26.7073 168.333 25.71V24.758L165.579 25.336C164.899 25.472 164.389 25.676 164.049 25.948C163.732 26.1973 163.573 26.5827 163.573 27.104ZM191.745 15V19.114H186.679V25.948C186.679 26.764 186.871 27.3533 187.257 27.716C187.665 28.056 188.22 28.226 188.923 28.226C189.467 28.226 189.931 28.1693 190.317 28.056C190.702 27.92 191.065 27.7273 191.405 27.478L192.017 31.048C191.45 31.4333 190.725 31.7507 189.841 32C188.979 32.2267 188.107 32.34 187.223 32.34C185.273 32.34 183.732 31.932 182.599 31.116C181.488 30.2773 180.921 28.872 180.899 26.9V19.114H177.975V15H180.899V11.192L186.679 9.594V15H191.745Z" fill="white"/>
<path d="M15.5 10.5C20.3011 16.6509 23 20.3236 23 24.0343C23 27.7315 19.8431 30.5 15.5 30.5C11.1569 30.5 7.5 27.7303 7.5 24.0343C7.5 20.3225 10.6976 16.6509 15.5 10.5ZM15.5 5.84848C9.10813 13.9905 5 19.0837 5 24.0343C5 28.9872 9.69744 33 15.5 33C21.3026 33 26 28.9872 26 24.0343C26 19.0837 21.8919 13.9905 15.5 5.84848Z" fill="white"/>
<path d="M6 25C6 25 8.61538 22 11.8846 22C15.1538 22 12.5385 25 16.4615 25C20.3846 25 24 22 24 22" stroke="white" stroke-width="2"/>
</svg>
